<svg xmlns="http://www.w3.org/2000/svg" viewBox="0 0 320 160" width="320" height="160">
  <defs>
    <linearGradient id="v3ld-flame" x1="0.25" y1="1" x2="0.6" y2="0">
      <stop offset="0%"   stop-color="#C03200"/>
      <stop offset="38%"  stop-color="#E8600A"/>
      <stop offset="72%"  stop-color="#F59820"/>
      <stop offset="100%" stop-color="#FAD84A"/>
    </linearGradient>
    <linearGradient id="v3ld-flamehi" x1="0.35" y1="1" x2="0.5" y2="0">
      <stop offset="0%"   stop-color="#F07818"/>
      <stop offset="100%" stop-color="#FEEEA0"/>
    </linearGradient>
    <radialGradient id="v3ld-glow" cx="50%" cy="0%" r="80%">
      <stop offset="0%"   stop-color="#F09020" stop-opacity="0.50"/>
      <stop offset="100%" stop-color="#F09020" stop-opacity="0"/>
    </radialGradient>
  </defs>
  <ellipse cx="50" cy="74" rx="18" ry="14" fill="url(#v3ld-glow)"/>
  <line x1="50" y1="80" x2="50" y2="144"
        stroke="#CCCCCC" stroke-width="2.5" stroke-linecap="round" opacity="0.55"/>
  <path d="M50,96 Q38,104 24,120"
        stroke="#CCCCCC" stroke-width="2" fill="none" stroke-linecap="round" opacity="0.45"/>
  <path d="M24,120 Q30,132 50,138"
        stroke="#CCCCCC" stroke-width="2" fill="none" stroke-linecap="round" opacity="0.45"/>
  <path d="M50,106 Q63,112 76,128"
        stroke="#CCCCCC" stroke-width="2" fill="none" stroke-linecap="round" opacity="0.45"/>
  <path d="M76,128 Q68,138 50,142"
        stroke="#CCCCCC" stroke-width="2" fill="none" stroke-linecap="round" opacity="0.45"/>
  <circle cx="24"  cy="120" r="4" fill="#CCCCCC" opacity="0.52"/>
  <circle cx="76"  cy="128" r="4" fill="#CCCCCC" opacity="0.52"/>
  <circle cx="50"  cy="112" r="3.5" fill="#CCCCCC" opacity="0.38"/>
  <circle cx="50"  cy="144" r="5" fill="#CCCCCC" opacity="0.62"/>
  <circle cx="50" cy="74" r="7" fill="#CCCCCC"/>
  <circle cx="50" cy="74" r="5" fill="#E5650A"/>
  <circle cx="50" cy="74" r="2.5" fill="#F8D040"/>
  <path d="
    M50,68
    C38,60 28,46 30,28
    C32,13 42,4 50,0
    C58,5 68,16 69,30
    C71,49 62,61 50,68
    Z"
    fill="url(#v3ld-flame)" opacity="0.97"/>
  <path d="
    M50,61
    C43,54 37,42 39,28
    C41,17 46,8 50,4
    C54,9 59,19 60,30
    C61,44 57,55 50,61
    Z"
    fill="url(#v3ld-flamehi)" opacity="0.40"/>
  <text
    x="96" y="34"
    font-family="system-ui, -apple-system, sans-serif"
    font-size="34"
    font-weight="500"
    letter-spacing="-0.2"
    fill="#E6EDF3"
    dominant-baseline="middle">git-fire</text>
</svg>
