<!-- Variant 3: Git commit tree as a trunk/tree shape, flame crowns the top.
     Structure (top to bottom):
       - Flame at top (y~1468)
       - HEAD commit node at y=74
       - Trunk line y=74 ’ y=110
       - Two branch divergences:
           Left branch: y=88, goes down-left to node at (32, 116)
           Right branch: y=96, goes down-right to node at (88, 122)
       - Merge line from both branches back to main trunk at y=136
       - Root commit at y=144

     This reads unmistakably as a git graph. The flame grows from the HEAD.
     Colors: near-black graph on warm-gray tones so the orange flame pops.
-->
<svg xmlns="http://www.w3.org/2000/svg" viewBox="0 0 120 160" width="120" height="160">
  <defs>
    <linearGradient id="v3-flame" x1="0.25" y1="1" x2="0.6" y2="0">
      <stop offset="0%"   stop-color="#C03200"/>
      <stop offset="38%"  stop-color="#E8600A"/>
      <stop offset="72%"  stop-color="#F59820"/>
      <stop offset="100%" stop-color="#FAD84A"/>
    </linearGradient>
    <linearGradient id="v3-flamehi" x1="0.35" y1="1" x2="0.5" y2="0">
      <stop offset="0%"   stop-color="#F07818"/>
      <stop offset="100%" stop-color="#FEEEA0"/>
    </linearGradient>
    <radialGradient id="v3-glow" cx="50%" cy="0%" r="80%">
      <stop offset="0%"   stop-color="#F09020" stop-opacity="0.40"/>
      <stop offset="100%" stop-color="#F09020" stop-opacity="0"/>
    </radialGradient>
  </defs>

  <!-- Soft glow halo around HEAD area -->
  <ellipse cx="60" cy="74" rx="22" ry="16" fill="url(#v3-glow)"/>

  <!-- Git graph: trunk (main branch) -->
  <line x1="60" y1="80" x2="60" y2="144"
        stroke="#2A2A2A" stroke-width="2.5" stroke-linecap="round" opacity="0.75"/>

  <!-- Left branch: diverges from trunk at y=96, goes to node at (30,122) -->
  <path d="M60,96 Q46,104 30,122"
        stroke="#2A2A2A" stroke-width="2" fill="none" stroke-linecap="round" opacity="0.6"/>
  <!-- Left branch merges back at y=138 -->
  <path d="M30,122 Q38,132 60,138"
        stroke="#2A2A2A" stroke-width="2" fill="none" stroke-linecap="round" opacity="0.6"/>

  <!-- Right branch: diverges from trunk at y=106, goes to node at (90,128) -->
  <path d="M60,106 Q75,112 90,128"
        stroke="#2A2A2A" stroke-width="2" fill="none" stroke-linecap="round" opacity="0.6"/>
  <!-- Right branch merges back at y=142 -->
  <path d="M90,128 Q80,138 60,142"
        stroke="#2A2A2A" stroke-width="2" fill="none" stroke-linecap="round" opacity="0.6"/>

  <!-- Commit nodes on branches -->
  <circle cx="30"  cy="122" r="4.5" fill="#2A2A2A" opacity="0.65"/>
  <circle cx="90"  cy="128" r="4.5" fill="#2A2A2A" opacity="0.65"/>

  <!-- Trunk commit nodes -->
  <circle cx="60" cy="112" r="4" fill="#2A2A2A" opacity="0.50"/>

  <!-- Root commit -->
  <circle cx="60" cy="144" r="5.5" fill="#2A2A2A" opacity="0.80"/>

  <!-- HEAD commit node (bright  the "on fire" commit) -->
  <circle cx="60" cy="74" r="7" fill="#2A2A2A"/>
  <circle cx="60" cy="74" r="5" fill="#E5650A"/>
  <circle cx="60" cy="74" r="2.5" fill="#F8D040"/>

  <!-- Flame: grows from HEAD upward -->
  <path d="
    M60,68
    C47,60 37,46 39,28
    C41,13 51,4 60,0
    C69,5 79,16 80,30
    C82,49 72,61 60,68
    Z"
    fill="url(#v3-flame)" opacity="0.97"/>

  <!-- Flame inner core -->
  <path d="
    M60,61
    C52,54 46,42 48,28
    C50,17 55,8 60,4
    C65,9 70,19 71,30
    C72,44 67,55 60,61
    Z"
    fill="url(#v3-flamehi)" opacity="0.42"/>
</svg>
